# This file uses centimeters as units for non-parametric coordinates.

mtllib test2.mtl
g default
v -0.000016 0.000000 100.868439
v -0.000016 0.000000 -100.868484
v 1.608910 -1.608925 -51.237858
v -1.608925 -1.608925 -51.237858
v -1.608925 1.608925 -51.237858
v 1.608910 1.608925 -51.237858
v 7.011124 -7.011139 -34.396698
v -7.011139 -7.011139 -34.396698
v -7.011139 7.011124 -34.396706
v 7.011124 7.011124 -34.396706
v 1.608910 -1.608925 -77.234932
v -1.608925 -1.608925 -77.234932
v -1.608925 1.608925 -77.234932
v 1.608910 1.608925 -77.234932
v 2.901733 2.901779 -79.225044
v -2.901749 2.901779 -79.225044
v -2.901749 -2.901749 -79.225044
v 2.901733 -2.901749 -79.225044
v 1.608910 -1.608925 -51.237858
v -1.608925 -1.608925 -51.237858
v -1.608925 1.608925 -51.237858
v 1.608910 1.608925 -51.237858
v 1.608910 1.608925 -48.979034
v -1.608925 1.608925 -48.979034
v -1.608925 -1.608925 -48.979034
v 1.608910 -1.608925 -48.979034
v -9.684723 -9.684692 -48.979034
v 9.684723 -9.684692 -48.979034
v -9.684723 9.684662 -48.979034
v 9.684723 9.684662 -48.979034
v 9.684723 9.684662 -51.237858
v -9.684723 9.684662 -51.237858
v -9.684723 -9.684692 -51.237858
v 9.684723 -9.684692 -51.237858
v -9.684723 9.684662 -48.979034
v 9.684723 9.684662 -48.979034
v -9.684723 -9.684692 -48.979034
v 9.684723 -9.684692 -48.979034
v 11.068176 11.068146 -48.979034
v -11.068176 11.068146 -48.979034
v 11.068176 11.068146 -51.237858
v -11.068176 11.068146 -51.237858
v -11.068176 -11.068176 -51.237858
v -11.068176 -11.068176 -48.979034
v 11.068176 -11.068176 -51.237858
v 11.068176 -11.068176 -48.979034
v -2.160988 2.160973 -49.716991
v 2.160973 2.160973 -49.716991
v -7.929504 7.929489 -49.716991
v 7.929504 7.929489 -49.716991
v -2.160988 -2.160980 -49.716991
v -7.929504 -7.929550 -49.716991
v 2.160973 -2.160980 -49.716991
v 7.929504 -7.929504 -49.716991
vt 0.500000 0.125000
vt 0.500000 0.625000
vt 0.500000 1.000000
vt 0.875000 0.125000
vt 0.125000 0.125000
vt 0.625000 0.811504
vt 0.813496 0.000000
vt 0.186504 0.000000
vt 0.375000 0.811504
vt 0.186504 0.250000
vt 0.375000 0.438496
vt 0.625000 0.438496
vt 0.813496 0.250000
vt 0.625000 0.873381
vt 0.751619 0.000000
vt 0.248381 0.000000
vt 0.375000 0.873381
vt 0.248381 0.250000
vt 0.375000 0.376619
vt 0.625000 0.376619
vt 0.751619 0.250000
vt 0.625000 0.779288
vt 0.845712 0.000000
vt 0.154288 0.000000
vt 0.375000 0.779288
vt 0.154288 0.250000
vt 0.375000 0.470712
vt 0.625000 0.470712
vt 0.845712 0.250000
vt 0.625000 0.475355
vt 0.850355 0.250000
vt 0.149645 0.250000
vt 0.375000 0.475355
vt 0.149645 0.000000
vt 0.375000 0.774645
vt 0.625000 0.774645
vt 0.850355 0.000000
vt 0.625000 0.432897
vt 0.807897 0.250000
vt 0.192103 0.250000
vt 0.375000 0.432897
vt 0.192103 0.000000
vt 0.375000 0.817103
vt 0.625000 0.817103
vt 0.807897 0.000000
vt 0.000000 0.000000
vt 1.000000 0.000000
vt 1.000000 1.000000
vt 0.000000 1.000000
vt 0.000000 0.000000
vt 1.000000 0.000000
vt 1.000000 1.000000
vt 0.000000 1.000000
vt 0.000000 0.000000
vt 1.000000 0.000000
vt 1.000000 1.000000
vt 0.000000 1.000000
vt 0.000000 0.000000
vt 1.000000 0.000000
vt 1.000000 1.000000
vt 0.000000 1.000000
vt 0.000000 0.000000
vt 1.000000 0.000000
vt 1.000000 1.000000
vt 0.000000 1.000000
vt 0.000000 0.000000
vt 1.000000 0.000000
vt 1.000000 1.000000
vt 0.000000 1.000000
vt 0.000000 0.000000
vt 1.000000 0.000000
vt 1.000000 1.000000
vt 0.000000 1.000000
vt 0.000000 0.000000
vt 1.000000 0.000000
vt 1.000000 1.000000
vt 0.000000 1.000000
vt 0.625000 0.438496
vt 0.375000 0.438496
vt 0.186504 0.250000
vt 0.186504 0.000000
vt 0.375000 0.811504
vt 0.625000 0.811504
vt 0.813496 0.000000
vt 0.813496 0.250000
vt 1.000000 1.000000
vt 0.000000 1.000000
vt 1.000000 1.000000
vt 0.000000 1.000000
vt 1.000000 1.000000
vt 0.000000 1.000000
vt 1.000000 1.000000
vt 0.000000 1.000000
vt 0.375000 0.432897
vt 0.625000 0.432897
vt 0.625000 0.438496
vt 0.375000 0.438496
vt 0.186504 0.250000
vt 0.186504 0.000000
vt 0.192103 0.000000
vt 0.192103 0.250000
vt 0.375000 0.811504
vt 0.625000 0.811504
vt 0.625000 0.817103
vt 0.375000 0.817103
vt 0.807897 0.250000
vt 0.807897 0.000000
vt 0.813496 0.000000
vt 0.813496 0.250000
vt 0.625000 0.438496
vt 0.375000 0.438496
vt 0.375000 0.438496
vt 0.625000 0.438496
vt 0.186504 0.250000
vt 0.186504 0.000000
vt 0.186504 0.000000
vt 0.186504 0.250000
vt 0.375000 0.811504
vt 0.625000 0.811504
vt 0.625000 0.811504
vt 0.375000 0.811504
vt 0.813496 0.000000
vt 0.813496 0.250000
vt 0.813496 0.250000
vt 0.813496 0.000000
vn 0.000000 0.998233 0.059415
vn 0.000000 0.995883 0.090646
vn 0.000000 0.995472 -0.095057
vn 0.000000 0.996506 -0.083528
vn 0.000000 -0.996505 -0.083527
vn 0.000000 -0.995472 -0.095057
vn 0.000000 -0.995883 0.090644
vn 0.000000 -0.998234 0.059413
vn 0.998234 0.000000 0.059414
vn 0.995883 0.000000 0.090644
vn 0.995472 0.000000 -0.095057
vn 0.996506 0.000000 -0.083527
vn -0.996506 0.000000 -0.083527
vn -0.995883 0.000000 0.090644
vn -0.995472 0.000000 -0.095057
vn -0.998234 0.000000 0.059414
vn 0.000000 -0.983605 0.180336
vn 0.000000 -0.983605 0.180336
vn 0.000000 -0.983605 0.180336
vn 0.000000 -0.983605 0.180336
vn -0.983605 0.000000 0.180338
vn -0.983605 0.000000 0.180338
vn -0.983605 0.000000 0.180338
vn -0.983605 0.000000 0.180338
vn 0.000000 0.983605 0.180335
vn 0.000000 0.983605 0.180335
vn 0.000000 0.983605 0.180335
vn 0.000000 0.983605 0.180335
vn 0.983605 0.000000 0.180339
vn 0.983605 0.000000 0.180339
vn 0.983604 0.000000 0.180339
vn 0.983605 0.000000 0.180339
vn 0.000000 -0.998659 0.051763
vn 0.000000 -0.998659 0.051763
vn 0.000000 -0.998659 0.051763
vn -0.998659 0.000000 0.051763
vn -0.998659 0.000000 0.051763
vn -0.998659 0.000000 0.051763
vn 0.000000 0.998659 0.051763
vn 0.000000 0.998659 0.051763
vn 0.000000 0.998659 0.051763
vn 0.998659 0.000000 0.051763
vn 0.998659 0.000000 0.051763
vn 0.998659 0.000000 0.051763
vn 0.000000 -1.000000 0.000000
vn 0.000000 -1.000000 0.000000
vn -1.000000 0.000000 0.000000
vn -1.000000 0.000000 0.000000
vn 0.000000 1.000000 0.000000
vn 0.000000 1.000000 0.000000
vn 1.000000 0.000000 0.000000
vn 1.000000 0.000000 0.000000
vn 0.000000 0.991132 -0.132883
vn -0.991132 0.000000 -0.132881
vn 0.000000 -0.991132 -0.132882
vn 0.991132 0.000000 -0.132882
vn 0.000000 1.000000 0.000000
vn 0.000000 1.000000 0.000000
vn 0.000000 1.000000 0.000000
vn 0.000000 1.000000 0.000000
vn -1.000000 0.000000 0.000000
vn -1.000000 0.000000 0.000000
vn -1.000000 0.000000 0.000000
vn -1.000000 0.000000 0.000000
vn 0.000000 -1.000000 0.000000
vn 0.000000 -1.000000 0.000000
vn 0.000000 -1.000000 0.000000
vn 0.000000 -1.000000 0.000000
vn 1.000000 0.000000 0.000000
vn 1.000000 0.000000 0.000000
vn 1.000000 0.000000 0.000000
vn 1.000000 0.000000 0.000000
vn 0.000000 0.000000 0.000000
vn 0.000000 0.000000 0.000000
vn 0.000000 0.000000 0.000000
vn 0.000000 0.000000 0.000000
vn 0.000000 0.000000 0.000000
vn 0.000000 0.000000 0.000000
vn 0.000000 0.000000 0.000000
vn 0.000000 0.000000 0.000000
vn 0.000000 0.000000 0.000000
vn 0.000000 0.000000 0.000000
vn 0.000000 0.000000 0.000000
vn 0.000000 0.000000 0.000000
vn 0.000000 0.000000 0.000000
vn 0.000000 0.000000 0.000000
vn 0.000000 0.000000 0.000000
vn 0.000000 0.000000 0.000000
vn 0.000000 0.000000 0.000000
vn 0.000000 0.000000 0.000000
vn 0.000000 0.000000 0.000000
vn 0.000000 0.000000 0.000000
vn 0.000000 0.000000 0.000000
vn 0.000000 0.000000 0.000000
vn 0.000000 0.000000 0.000000
vn 0.000000 0.000000 0.000000
vn 0.000000 0.000000 0.000000
vn 0.000000 0.000000 0.000000
vn 0.000000 0.000000 0.000000
vn 0.000000 0.000000 0.000000
vn 0.000000 0.000000 0.000000
vn 0.000000 0.000000 0.000000
vn 0.000000 0.000000 0.000000
vn 0.000000 0.000000 0.000000
vn 0.000000 0.000000 -1.000000
vn 0.000000 0.000000 -1.000000
vn 0.000000 0.000000 -1.000000
vn 0.000000 0.000000 -1.000000
vn 0.000000 0.000000 -1.000000
vn -0.000000 0.000000 -1.000000
vn 0.000000 0.000000 -1.000000
vn -0.000000 0.000000 -1.000000
vn 0.000000 0.000000 1.000000
vn 0.000000 0.000000 1.000000
vn 0.000000 0.000000 1.000000
vn 0.000000 0.000000 1.000000
vn 0.000000 0.000000 1.000000
vn 0.000000 0.000000 1.000000
vn 0.000000 0.000000 1.000000
vn 0.000000 0.000000 1.000000
vn -0.000000 0.000000 1.000000
vn 0.000001 0.000000 1.000000
vn 0.000000 0.000000 1.000000
vn 0.000000 0.000000 1.000000
vn -0.000004 0.000000 -1.000000
vn -0.000001 0.000000 -1.000000
vn -0.000004 0.000000 -1.000000
vn -0.000001 0.000000 -1.000000
vn 0.000004 0.000000 -1.000000
vn 0.000004 0.000000 -1.000000
vn -0.000001 0.000000 1.000000
vn -0.000000 0.000000 1.000000
vn 0.000001 0.000000 -1.000000
vn 0.000001 0.000000 -1.000000
vn 0.000000 0.000000 1.000000
vn 0.000000 0.000000 1.000000
vn 0.000000 0.939991 -0.341200
vn 0.000000 0.939991 -0.341200
vn 0.000000 0.939991 -0.341200
vn 0.000000 0.939991 -0.341200
vn 0.000000 -0.654861 -0.755749
vn 0.000000 -0.654861 -0.755750
vn 0.000000 -0.654861 -0.755749
vn 0.000000 -0.654861 -0.755750
vn -0.939988 0.000000 -0.341207
vn -0.939987 0.000000 -0.341209
vn -0.939988 0.000000 -0.341208
vn -0.939987 0.000000 -0.341209
vn 0.654851 0.000000 -0.755758
vn 0.654850 0.000000 -0.755759
vn 0.654851 0.000000 -0.755758
vn 0.654850 0.000000 -0.755759
vn 0.000000 -0.939989 -0.341204
vn 0.000000 -0.939989 -0.341204
vn 0.000000 -0.939989 -0.341204
vn 0.000000 -0.939989 -0.341204
vn 0.000000 0.654858 -0.755752
vn -0.000001 0.654867 -0.755745
vn -0.000000 0.654858 -0.755752
vn -0.000002 0.654868 -0.755743
vn 0.939988 0.000000 -0.341208
vn 0.939988 0.000000 -0.341208
vn 0.939988 0.000000 -0.341208
vn 0.939988 0.000000 -0.341208
vn -0.654851 0.000000 -0.755758
vn -0.654852 0.000000 -0.755757
vn -0.654851 0.000000 -0.755758
vn -0.654853 0.000000 -0.755757
s 1
g test:pCube1
usemtl initialShadingGroup
f 13/27/1 14/28/2 16/33/3
f 16/33/3 14/28/2 15/30/4
s 2
f 17/35/5 18/36/6 12/25/7
f 12/25/7 18/36/6 11/22/8
s 3
f 14/29/9 11/23/10 15/31/11
f 15/31/11 11/23/10 18/37/12
s 4
f 17/34/13 12/24/14 16/32/15
f 16/32/15 12/24/14 13/26/16
s 5
f 27/43/17 28/44/18 8/17/19
f 8/17/19 28/44/18 7/14/20
s 6
f 29/40/21 27/42/22 9/18/23
f 9/18/23 27/42/22 8/16/24
s 7
f 9/19/25 10/20/26 29/41/27
f 29/41/27 10/20/26 30/38/28
s 8
f 10/21/29 7/15/30 30/39/31
f 30/39/31 7/15/30 28/45/32
s off
f 8/17/33 7/14/34 1/3/35
f 9/18/36 8/16/37 1/1/38
f 1/1/39 10/20/40 9/19/41
f 1/1/42 7/15/43 10/21/44
s 2
f 12/25/7 11/22/8 4/9/45
f 4/9/45 11/22/8 3/6/46
s 4
f 13/26/16 12/24/14 5/10/47
f 5/10/47 12/24/14 4/8/48
s 1
f 5/11/49 6/12/50 13/27/1
f 13/27/1 6/12/50 14/28/2
s 3
f 6/13/51 3/7/52 14/29/9
f 14/29/9 3/7/52 11/23/10
s 1
f 16/33/3 15/30/4 2/2/53
s 4
f 2/5/54 17/34/13 16/32/15
s 2
f 2/2/55 18/36/6 17/35/5
s 3
f 15/31/11 18/37/12 2/4/56
s 9
f 40/94/57 39/95/58 42/97/59
f 42/97/59 39/95/58 41/96/60
s 10
f 42/98/61 43/99/62 40/101/63
f 40/101/63 43/99/62 44/100/64
s 11
f 43/102/65 45/103/66 44/105/67
f 44/105/67 45/103/66 46/104/68
s 12
f 39/106/69 46/107/70 41/109/71
f 41/109/71 46/107/70 45/108/72
s 13
f 19/49/73 3/46/74 20/48/75
f 3/46/74 4/47/76 20/48/75
s 14
f 20/53/77 4/50/78 21/52/79
f 4/50/78 5/51/80 21/52/79
s 15
f 21/57/81 5/54/82 22/56/83
f 5/54/82 6/55/84 22/56/83
s 16
f 22/61/85 6/58/86 19/60/87
f 6/58/86 3/59/88 19/60/87
s 17
f 36/87/89 30/62/90 35/86/91
f 30/62/90 29/63/92 35/86/91
s 18
f 35/89/93 29/66/94 37/88/95
f 29/66/94 27/67/96 37/88/95
s 19
f 37/91/97 27/70/98 38/90/99
f 27/70/98 28/71/100 38/90/99
s 20
f 38/93/101 28/74/102 36/92/103
f 28/74/102 30/75/104 36/92/103
s 21
f 48/110/105 47/111/106 50/113/107
f 50/113/107 47/111/106 49/112/108
f 47/114/106 51/115/109 49/117/108
f 49/117/108 51/115/109 52/116/110
f 51/118/109 53/119/111 52/121/110
f 52/121/110 53/119/111 54/120/112
f 53/122/111 48/123/105 54/125/112
f 54/125/112 48/123/105 50/124/107
s 22
f 24/64/113 23/65/114 35/86/115
f 35/86/115 23/65/114 36/87/116
f 25/68/117 24/69/113 37/88/118
f 37/88/118 24/69/113 35/89/115
f 26/72/119 25/73/117 38/90/120
f 38/90/120 25/73/117 37/91/118
f 23/76/114 26/77/119 36/92/116
f 36/92/116 26/77/119 38/93/120
s 23
f 29/41/121 30/38/122 40/94/123
f 40/94/123 30/38/122 39/95/124
s 24
f 31/78/125 32/79/126 41/96/127
f 41/96/127 32/79/126 42/97/128
f 32/80/126 33/81/129 42/98/128
f 42/98/128 33/81/129 43/99/130
s 23
f 27/42/131 29/40/121 44/100/132
f 44/100/132 29/40/121 40/101/123
s 24
f 33/82/129 34/83/133 43/102/130
f 43/102/130 34/83/133 45/103/134
s 23
f 28/44/135 27/43/131 46/104/136
f 46/104/136 27/43/131 44/105/132
f 30/39/122 28/45/135 39/106/124
f 39/106/124 28/45/135 46/107/136
s 24
f 34/84/133 31/85/125 45/108/134
f 45/108/134 31/85/125 41/109/127
s 25
f 6/12/137 5/11/138 48/110/139
f 48/110/139 5/11/138 47/111/140
s 26
f 32/79/141 31/78/142 49/112/143
f 49/112/143 31/78/142 50/113/144
s 27
f 5/10/145 4/8/146 47/114/147
f 47/114/147 4/8/146 51/115/148
s 28
f 33/81/149 32/80/150 52/116/151
f 52/116/151 32/80/150 49/117/152
s 29
f 4/9/153 3/6/154 51/118/155
f 51/118/155 3/6/154 53/119/156
s 30
f 34/83/157 33/82/158 54/120/159
f 54/120/159 33/82/158 52/121/160
s 31
f 3/7/161 6/13/162 53/122/163
f 53/122/163 6/13/162 48/123/164
s 32
f 31/85/165 34/84/166 50/124/167
f 50/124/167 34/84/166 54/125/168
